<svg width="133" height="37" viewBox="0 0 133 37" fill="none" xmlns="http://www.w3.org/2000/svg">
<g filter="url(#filter0_d_25_10501)">
<path d="M48.6783 25H45.8419L41.8445 15.0572L39.7651 25H36.9287L40.0175 10.2019H42.8641L46.8715 20.1043L48.9408 10.2019H51.7672L48.6783 25Z" fill="#D0BCFF"/>
<path d="M50.1596 25.0072C50.1596 24.451 50.3161 24.0079 50.6291 23.678C50.9439 23.3461 51.3568 23.1802 51.8678 23.1802C52.3108 23.1802 52.6568 23.3028 52.9057 23.5479C53.1546 23.7911 53.279 24.1192 53.279 24.5321C53.279 25.0185 53.1235 25.439 52.8124 25.7934C52.5013 26.1479 52.0846 26.3251 51.5623 26.3251C51.2795 26.3251 51.0288 26.2685 50.8101 26.1554C50.5913 26.0423 50.4283 25.882 50.3208 25.6746C50.2133 25.4672 50.1596 25.2448 50.1596 25.0072ZM52.473 24.4274C52.473 24.2351 52.4164 24.0815 52.3033 23.9664C52.1921 23.8496 52.0478 23.7911 51.8706 23.7911C51.6953 23.7911 51.5397 23.8458 51.404 23.9551C51.2682 24.0626 51.1626 24.22 51.0872 24.4274C51.0118 24.6329 50.9741 24.8224 50.9741 24.9959C50.9741 25.2108 51.0325 25.3814 51.1494 25.5078C51.2663 25.6341 51.4134 25.6973 51.5906 25.6973C51.8131 25.6973 51.9997 25.602 52.1506 25.4116C52.3655 25.142 52.473 24.8139 52.473 24.4274ZM53.7852 23.8533L53.9097 23.2509H54.3056L54.4046 22.7702L55.335 22.2102L55.1173 23.2509H55.6122L55.4878 23.8533H54.99L54.727 25.1118C54.6799 25.34 54.6563 25.4701 54.6563 25.5021C54.6563 25.5643 54.6761 25.6134 54.7157 25.6492C54.7553 25.6831 54.8269 25.7001 54.9306 25.7001C54.9664 25.7001 55.056 25.6935 55.1993 25.6803L55.072 26.2827C54.9325 26.311 54.7892 26.3251 54.6422 26.3251C54.3556 26.3251 54.1472 26.2704 54.0171 26.1611C53.887 26.0498 53.822 25.8962 53.822 25.7001C53.822 25.6077 53.8569 25.3946 53.9266 25.0609L54.1783 23.8533H53.7852ZM56.3758 22.1084H57.1875L57.0347 22.8437H56.2231L56.3758 22.1084ZM56.1382 23.2509H56.9499L56.3221 26.2544H55.5104L56.1382 23.2509ZM56.9867 26.2544L57.1026 25.7057L58.7486 23.8844H57.4052L57.5381 23.2509H59.894L59.795 23.7345L58.1349 25.5983H59.5801L59.4415 26.2544H56.9867ZM62.9427 25.0044H60.9064C60.9046 25.0364 60.9036 25.0609 60.9036 25.0779C60.9036 25.2778 60.9602 25.439 61.0733 25.5615C61.1883 25.6841 61.3278 25.7453 61.4919 25.7453C61.7615 25.7453 61.9717 25.6058 62.1225 25.3268L62.8494 25.4484C62.708 25.7406 62.5185 25.9603 62.2809 26.1073C62.0452 26.2525 61.7803 26.3251 61.4862 26.3251C61.0827 26.3251 60.7547 26.1978 60.502 25.9433C60.2494 25.6869 60.1231 25.3485 60.1231 24.928C60.1231 24.517 60.2371 24.1512 60.4653 23.8307C60.7763 23.3971 61.2204 23.1802 61.7973 23.1802C62.165 23.1802 62.4572 23.2943 62.674 23.5224C62.8908 23.7487 62.9992 24.0664 62.9992 24.4755C62.9992 24.6716 62.9804 24.8479 62.9427 25.0044ZM62.2583 24.5094C62.2602 24.4736 62.2611 24.4463 62.2611 24.4274C62.2611 24.205 62.2111 24.0381 62.1112 23.9269C62.0113 23.8156 61.8774 23.76 61.7096 23.76C61.5418 23.76 61.391 23.8232 61.2571 23.9495C61.1251 24.0758 61.0356 24.2625 60.9885 24.5094H62.2583ZM63.8816 23.2509H64.6509L64.5717 23.6412C64.764 23.4753 64.9431 23.3575 65.109 23.2877C65.2768 23.2161 65.4531 23.1802 65.6379 23.1802C65.8849 23.1802 66.0791 23.2509 66.2205 23.3923C66.3638 23.5337 66.4354 23.7213 66.4354 23.9551C66.4354 24.0607 66.4043 24.2606 66.3421 24.5547L65.9886 26.2544H65.1769L65.5332 24.549C65.586 24.2945 65.6124 24.1427 65.6124 24.0937C65.6124 23.99 65.5813 23.9089 65.5191 23.8505C65.4588 23.7902 65.3739 23.76 65.2646 23.76C65.1458 23.76 65.0138 23.81 64.8686 23.9099C64.7235 24.0098 64.6094 24.1418 64.5264 24.3058C64.4661 24.4227 64.3982 24.6612 64.3228 25.0213L64.0654 26.2544H63.2538L63.8816 23.2509Z" fill="#D0BCFF"/>
<path d="M52.9491 10.2833H56.3833C57.0631 10.2833 57.5691 10.3126 57.9012 10.3712C58.2372 10.4259 58.536 10.5431 58.7978 10.7229C59.0635 10.9026 59.2842 11.1429 59.46 11.4437C59.6359 11.7406 59.7238 12.0747 59.7238 12.4458C59.7238 12.8482 59.6144 13.2175 59.3956 13.5535C59.1807 13.8895 58.8877 14.1415 58.5165 14.3095C59.04 14.4618 59.4425 14.7216 59.7238 15.0889C60.0051 15.4562 60.1457 15.8879 60.1457 16.3841C60.1457 16.7748 60.0539 17.1557 59.8703 17.5268C59.6906 17.8941 59.4425 18.1891 59.126 18.4118C58.8134 18.6306 58.4267 18.7654 57.9656 18.8162C57.6765 18.8474 56.9791 18.8669 55.8734 18.8748H52.9491V10.2833ZM54.6838 11.7133V13.7H55.8207C56.4966 13.7 56.9166 13.6902 57.0807 13.6707C57.3776 13.6355 57.6101 13.5339 57.7781 13.3659C57.95 13.194 58.036 12.9694 58.036 12.692C58.036 12.4263 57.9617 12.2114 57.8133 12.0473C57.6687 11.8793 57.4519 11.7777 57.1627 11.7426C56.9908 11.723 56.4966 11.7133 55.6801 11.7133H54.6838ZM54.6838 15.1299V17.4272H56.2895C56.9147 17.4272 57.3112 17.4096 57.4792 17.3745C57.7371 17.3276 57.9461 17.2143 58.1063 17.0346C58.2704 16.8509 58.3524 16.6068 58.3524 16.302C58.3524 16.0442 58.2899 15.8254 58.1649 15.6456C58.0399 15.4659 57.8582 15.335 57.6199 15.253C57.3854 15.1709 56.8736 15.1299 56.0844 15.1299H54.6838ZM61.6636 18.8748V10.3536H63.3983V17.4272H67.7116V18.8748H61.6636ZM68.6024 14.6318C68.6024 13.7566 68.7333 13.0221 68.995 12.4282C69.1904 11.9907 69.456 11.598 69.792 11.2503C70.1319 10.9026 70.5031 10.6447 70.9055 10.4767C71.4408 10.2501 72.0581 10.1368 72.7574 10.1368C74.0233 10.1368 75.0352 10.5295 75.7932 11.3148C76.555 12.1001 76.9359 13.1921 76.9359 14.5908C76.9359 15.9777 76.5589 17.0639 75.8049 17.8492C75.0508 18.6306 74.0428 19.0213 72.7809 19.0213C71.5033 19.0213 70.4875 18.6325 69.7334 17.855C68.9794 17.0736 68.6024 15.9992 68.6024 14.6318ZM70.3898 14.5732C70.3898 15.546 70.6145 16.2844 71.0638 16.7884C71.5131 17.2885 72.0835 17.5386 72.775 17.5386C73.4665 17.5386 74.0331 17.2905 74.4745 16.7943C74.9199 16.2942 75.1426 15.546 75.1426 14.5497C75.1426 13.5652 74.9258 12.8307 74.4921 12.3462C74.0624 11.8617 73.49 11.6195 72.775 11.6195C72.06 11.6195 71.4838 11.8656 71.0462 12.3579C70.6086 12.8463 70.3898 13.5847 70.3898 14.5732ZM83.7927 15.716L85.4746 16.2493C85.2168 17.1869 84.787 17.8843 84.1853 18.3415C83.5876 18.7947 82.8277 19.0213 81.9056 19.0213C80.7648 19.0213 79.8271 18.6325 79.0926 17.855C78.3581 17.0736 77.9908 16.007 77.9908 14.6552C77.9908 13.2253 78.36 12.1157 79.0985 11.3265C79.8369 10.5334 80.8078 10.1368 82.0111 10.1368C83.0621 10.1368 83.9158 10.4474 84.5721 11.0686C84.9628 11.4359 85.2558 11.9633 85.4512 12.6509L83.7341 13.0612C83.6325 12.6158 83.4196 12.2642 83.0953 12.0063C82.7749 11.7484 82.3842 11.6195 81.9232 11.6195C81.2864 11.6195 80.7687 11.8481 80.3702 12.3052C79.9756 12.7623 79.7783 13.5027 79.7783 14.5263C79.7783 15.6124 79.9736 16.386 80.3643 16.847C80.755 17.3081 81.2629 17.5386 81.888 17.5386C82.3491 17.5386 82.7456 17.3921 83.0777 17.099C83.4098 16.806 83.6481 16.345 83.7927 15.716ZM86.9925 18.8748V10.2833H88.7272V14.0985L92.2317 10.2833H94.5642L91.3292 13.6296L94.74 18.8748H92.4955L90.1337 14.8428L88.7272 16.2786V18.8748H86.9925Z" fill="#D0BCFF"/>
</g>
<path fill-rule="evenodd" clip-rule="evenodd" d="M10.7596 9.15514C11.4349 8.33069 11.3139 7.11495 10.4895 6.43971C9.66502 5.76447 8.44928 5.88542 7.77404 6.70987L0.873564 15.1351C-0.291186 16.5573 -0.29119 18.6036 0.873563 20.0257L7.77404 28.451C8.44928 29.2754 9.66502 29.3964 10.4895 28.7211C11.3139 28.0459 11.4349 26.8301 10.7596 26.0057L3.85916 17.5804L10.7596 9.15514ZM26.5631 9.15514C27.2383 8.33069 27.1174 7.11495 26.2929 6.43971C25.4685 5.76447 24.2527 5.88542 23.5775 6.70987L16.677 15.1351C15.5123 16.5573 15.5123 18.6036 16.677 20.0257L23.5775 28.451C24.2527 29.2754 25.4685 29.3964 26.2929 28.7211C27.1174 28.0459 27.2383 26.8301 26.5631 26.0057L19.6626 17.5804L26.5631 9.15514Z" fill="#CAC4D0"/>
<defs>
<filter id="filter0_d_25_10501" x="36" y="6" width="61.5828" height="25.3243" filterUnits="userSpaceOnUse" color-interpolation-filters="sRGB">
<feFlood flood-opacity="0" result="BackgroundImageFix"/>
<feColorMatrix in="SourceAlpha" type="matrix" values="0 0 0 0 0 0 0 0 0 0 0 0 0 0 0 0 0 0 127 0" result="hardAlpha"/>
<feOffset dx="0.791386" dy="0.791386"/>
<feGaussianBlur stdDeviation="0.395693"/>
<feComposite in2="hardAlpha" operator="out"/>
<feColorMatrix type="matrix" values="0 0 0 0 0.133006 0 0 0 0 0.126962 0 0 0 0 0.429167 0 0 0 0.25 0"/>
<feBlend mode="normal" in2="BackgroundImageFix" result="effect1_dropShadow_25_10501"/>
<feBlend mode="normal" in="SourceGraphic" in2="effect1_dropShadow_25_10501" result="shape"/>
</filter>
</defs>
</svg>
